<svg width="1920" height="1060" viewBox="0 0 1920 1060" fill="none" xmlns="http://www.w3.org/2000/svg">
<path d="M1039.69 268.435C1024.61 29.9352 1091.75 4.90741 1091.75 4.90741L1920 0V1060L300 1059.51C300 1059.51 330.49 895.111 517.932 752.305C705.374 609.5 1054.77 506.935 1039.69 268.435Z" fill="url(#paint0_linear_119_2)"/>
<g style="mix-blend-mode:darken">
<rect width="1920" height="848" fill="url(#paint1_linear_119_2)" fill-opacity="0.2"/>
</g>
<path d="M1130.34 192.798C1163.44 124.072 1152.58 76.1895 1166.84 1.47174L1919.84 0V1059.66L250.335 1058.18C259.131 897.625 357.836 763.344 510.335 704.475C662.834 645.605 660.336 678.964 765.335 634.812C870.334 590.66 918.058 426.255 975.835 359.105C1033.61 291.956 1092.06 272.25 1130.34 192.798Z" fill="url(#paint2_linear_119_2)"/>
<defs>
<linearGradient id="paint0_linear_119_2" x1="1110" y1="8.79863e-06" x2="1094.83" y2="3647.18" gradientUnits="userSpaceOnUse">
<stop stop-color="white"/>
<stop offset="0.284375" stop-color="#AFEEEE"/>
<stop offset="0.497917" stop-color="#B8F8D4" stop-opacity="0.3"/>
<stop offset="0.609768" stop-color="#B8F8D4" stop-opacity="0.3"/>
<stop offset="1" stop-color="#B8F8D4" stop-opacity="0.3"/>
</linearGradient>
<linearGradient id="paint1_linear_119_2" x1="960" y1="0" x2="960" y2="848" gradientUnits="userSpaceOnUse">
<stop offset="0.453125" stop-color="#B8F8D4"/>
<stop offset="0.729395" stop-color="white"/>
</linearGradient>
<linearGradient id="paint2_linear_119_2" x1="-74.6641" y1="0" x2="1919.84" y2="0" gradientUnits="userSpaceOnUse">
<stop stop-color="#8124F8" stop-opacity="0"/>
<stop offset="0.475614" stop-color="#AB7AE9" stop-opacity="0.18"/>
<stop offset="1" stop-color="#D9D9D9" stop-opacity="0"/>
</linearGradient>
</defs>
</svg>
